<mxfile host="app.diagrams.net" modified="2022-03-22T08:21:52.452Z" agent="5.0 (Windows NT 10.0; Win64; x64) AppleWebKit/537.36 (KHTML, like Gecko) Chrome/99.0.4844.51 Safari/537.36 Edg/99.0.1150.39" etag="NRghthzBDT73kXQyZRPK" version="16.4.7" type="github" pages="2">
  <diagram id="C5RBs43oDa-KdzZeNtuy" name="EM">
    <mxGraphModel dx="1422" dy="794" grid="1" gridSize="10" guides="1" tooltips="1" connect="1" arrows="1" fold="1" page="1" pageScale="1" pageWidth="827" pageHeight="1169" math="0" shadow="0">
      <root>
        <mxCell id="WIyWlLk6GJQsqaUBKTNV-0" />
        <mxCell id="WIyWlLk6GJQsqaUBKTNV-1" parent="WIyWlLk6GJQsqaUBKTNV-0" />
        <mxCell id="A__8rpoOTPyaU1sWIA0t-6" style="edgeStyle=orthogonalEdgeStyle;rounded=0;orthogonalLoop=1;jettySize=auto;html=1;entryX=0.5;entryY=0;entryDx=0;entryDy=0;" parent="WIyWlLk6GJQsqaUBKTNV-1" source="A__8rpoOTPyaU1sWIA0t-7" target="A__8rpoOTPyaU1sWIA0t-9" edge="1">
          <mxGeometry relative="1" as="geometry" />
        </mxCell>
        <mxCell id="A__8rpoOTPyaU1sWIA0t-7" value="Start" style="strokeWidth=2;html=1;shape=mxgraph.flowchart.start_1;whiteSpace=wrap;" parent="WIyWlLk6GJQsqaUBKTNV-1" vertex="1">
          <mxGeometry x="190" y="90" width="100" height="50" as="geometry" />
        </mxCell>
        <mxCell id="A__8rpoOTPyaU1sWIA0t-8" style="edgeStyle=orthogonalEdgeStyle;rounded=0;orthogonalLoop=1;jettySize=auto;html=1;entryX=0.5;entryY=0;entryDx=0;entryDy=0;entryPerimeter=0;" parent="WIyWlLk6GJQsqaUBKTNV-1" source="A__8rpoOTPyaU1sWIA0t-9" target="A__8rpoOTPyaU1sWIA0t-10" edge="1">
          <mxGeometry relative="1" as="geometry" />
        </mxCell>
        <mxCell id="A__8rpoOTPyaU1sWIA0t-9" value="EM Start" style="rounded=1;whiteSpace=wrap;html=1;absoluteArcSize=1;arcSize=14;strokeWidth=2;" parent="WIyWlLk6GJQsqaUBKTNV-1" vertex="1">
          <mxGeometry x="190" y="175" width="100" height="35" as="geometry" />
        </mxCell>
        <mxCell id="A__8rpoOTPyaU1sWIA0t-10" value="EM Ready?" style="strokeWidth=2;html=1;shape=mxgraph.flowchart.decision;whiteSpace=wrap;" parent="WIyWlLk6GJQsqaUBKTNV-1" vertex="1">
          <mxGeometry x="190" y="240" width="100" height="50" as="geometry" />
        </mxCell>
        <mxCell id="A__8rpoOTPyaU1sWIA0t-11" value="MachineState" style="rounded=1;whiteSpace=wrap;html=1;absoluteArcSize=1;arcSize=14;strokeWidth=2;" parent="WIyWlLk6GJQsqaUBKTNV-1" vertex="1">
          <mxGeometry x="190" y="320" width="100" height="35" as="geometry" />
        </mxCell>
      </root>
    </mxGraphModel>
  </diagram>
  <diagram id="d0zWDj6BicbdPUeeqikr" name="Page-2">
    <mxGraphModel dx="1422" dy="794" grid="1" gridSize="10" guides="1" tooltips="1" connect="1" arrows="1" fold="1" page="1" pageScale="1" pageWidth="827" pageHeight="1169" math="0" shadow="0">
      <root>
        <mxCell id="nzSEOdF4jOf0fmbuoUVZ-0" />
        <mxCell id="nzSEOdF4jOf0fmbuoUVZ-1" parent="nzSEOdF4jOf0fmbuoUVZ-0" />
        <mxCell id="nzSEOdF4jOf0fmbuoUVZ-6" value="" style="rounded=0;whiteSpace=wrap;html=1;dashed=1;" vertex="1" parent="nzSEOdF4jOf0fmbuoUVZ-1">
          <mxGeometry x="259" y="260" width="310" height="200" as="geometry" />
        </mxCell>
        <mxCell id="nzSEOdF4jOf0fmbuoUVZ-2" value="Dlt-viewer" style="rounded=1;whiteSpace=wrap;html=1;fillColor=#dae8fc;strokeColor=#6c8ebf;" vertex="1" parent="nzSEOdF4jOf0fmbuoUVZ-1">
          <mxGeometry x="350" y="380" width="120" height="60" as="geometry" />
        </mxCell>
        <mxCell id="nzSEOdF4jOf0fmbuoUVZ-4" value="Addon&lt;br&gt;系统信息" style="rounded=1;whiteSpace=wrap;html=1;fillColor=#f5f5f5;fontColor=#333333;strokeColor=#666666;" vertex="1" parent="nzSEOdF4jOf0fmbuoUVZ-1">
          <mxGeometry x="294" y="290" width="120" height="60" as="geometry" />
        </mxCell>
        <mxCell id="nzSEOdF4jOf0fmbuoUVZ-5" value="Daemon" style="rounded=1;whiteSpace=wrap;html=1;fillColor=#d5e8d4;strokeColor=#82b366;" vertex="1" parent="nzSEOdF4jOf0fmbuoUVZ-1">
          <mxGeometry x="354" y="490" width="120" height="60" as="geometry" />
        </mxCell>
        <mxCell id="nzSEOdF4jOf0fmbuoUVZ-7" value="" style="endArrow=classic;startArrow=classic;html=1;rounded=0;exitX=0.5;exitY=0;exitDx=0;exitDy=0;" edge="1" parent="nzSEOdF4jOf0fmbuoUVZ-1" source="nzSEOdF4jOf0fmbuoUVZ-5">
          <mxGeometry width="50" height="50" relative="1" as="geometry">
            <mxPoint x="364" y="490" as="sourcePoint" />
            <mxPoint x="414" y="440" as="targetPoint" />
          </mxGeometry>
        </mxCell>
        <mxCell id="nzSEOdF4jOf0fmbuoUVZ-8" value="" style="endArrow=classic;html=1;rounded=0;entryX=0.5;entryY=1;entryDx=0;entryDy=0;" edge="1" parent="nzSEOdF4jOf0fmbuoUVZ-1" target="nzSEOdF4jOf0fmbuoUVZ-4">
          <mxGeometry width="50" height="50" relative="1" as="geometry">
            <mxPoint x="414" y="380" as="sourcePoint" />
            <mxPoint x="464" y="330" as="targetPoint" />
          </mxGeometry>
        </mxCell>
        <mxCell id="nzSEOdF4jOf0fmbuoUVZ-9" value="Addon&lt;br&gt;数据可视化" style="rounded=1;whiteSpace=wrap;html=1;fillColor=#f5f5f5;fontColor=#333333;strokeColor=#666666;" vertex="1" parent="nzSEOdF4jOf0fmbuoUVZ-1">
          <mxGeometry x="430" y="290" width="120" height="60" as="geometry" />
        </mxCell>
        <mxCell id="nzSEOdF4jOf0fmbuoUVZ-11" value="" style="endArrow=classic;html=1;rounded=0;entryX=0.5;entryY=1;entryDx=0;entryDy=0;" edge="1" parent="nzSEOdF4jOf0fmbuoUVZ-1" target="nzSEOdF4jOf0fmbuoUVZ-9">
          <mxGeometry width="50" height="50" relative="1" as="geometry">
            <mxPoint x="414" y="380" as="sourcePoint" />
            <mxPoint x="464" y="330" as="targetPoint" />
          </mxGeometry>
        </mxCell>
      </root>
    </mxGraphModel>
  </diagram>
</mxfile>
